<?xml version="1.0" standalone="no"?>
<!DOCTYPE svg PUBLIC "-//W3C//DTD SVG 20010904//EN"
 "http://www.w3.org/TR/2001/REC-SVG-20010904/DTD/svg10.dtd">
<svg version="1.0" xmlns="http://www.w3.org/2000/svg"
 width="560.000000pt" height="560.000000pt" viewBox="0 0 560.000000 560.000000"
 preserveAspectRatio="xMidYMid meet">
<metadata>
Created by potrace 1.11, written by Peter Selinger 2001-2013
</metadata>
<g transform="translate(0.000000,560.000000) scale(0.100000,-0.100000)"
fill="#000000" stroke="none">
<path d="M46 4171 c-2 -3 -3 -81 -3 -173 l0 -168 2757 0 2757 0 -1 173 -1 172
-2753 1 c-1514 1 -2754 -2 -2756 -5z"/>
<path d="M44 2800 l1 -765 188 0 187 0 1 50 c0 27 1 260 1 518 1 257 2 467 5
467 2 0 25 -46 52 -102 26 -57 102 -218 169 -358 66 -140 142 -302 170 -360
58 -124 82 -152 160 -188 l57 -26 685 -1 c377 -1 690 1 697 3 7 2 94 109 194
238 100 129 184 234 186 234 7 0 25 -21 73 -85 25 -33 47 -62 50 -65 3 -3 37
-45 75 -95 38 -49 72 -92 75 -95 3 -3 17 -21 30 -40 14 -19 37 -49 52 -65 l27
-30 573 1 c419 0 584 4 616 13 76 22 137 91 148 169 3 20 6 220 6 445 0 224 2
407 4 407 2 0 20 -35 40 -77 20 -43 59 -125 86 -183 48 -100 84 -177 168 -355
21 -44 63 -133 93 -197 58 -123 94 -168 154 -193 59 -25 79 -27 289 -29 l201
-2 0 766 0 765 -189 0 c-181 0 -188 0 -189 -20 0 -11 -1 -271 -1 -577 l-1
-558 -23 48 c-20 42 -57 120 -161 342 -20 41 -63 131 -95 200 -33 69 -85 179
-116 245 -80 173 -113 221 -187 272 -69 47 -72 47 -758 48 l-648 0 -23 -25
c-13 -14 -78 -97 -146 -185 -68 -88 -126 -162 -130 -165 -3 -3 -23 -29 -44
-58 -21 -29 -43 -51 -48 -50 -5 2 -94 111 -197 243 l-187 240 -575 0 c-529 0
-578 -2 -621 -18 -57 -22 -114 -84 -129 -140 -6 -25 -10 -214 -11 -513 0 -278
-4 -472 -9 -468 -5 3 -9 9 -9 14 0 5 -34 79 -75 165 -41 86 -75 158 -75 160 0
2 -41 87 -90 190 -50 103 -90 189 -90 191 0 21 -140 282 -168 311 -87 93 -129
107 -348 108 l-171 0 1 -765z m2152 481 c10 -5 357 -446 377 -478 5 -8 -43
-77 -124 -180 -72 -92 -142 -181 -155 -198 -12 -16 -37 -48 -54 -70 l-32 -40
-379 -1 -379 -1 0 174 0 173 63 1 c34 0 170 1 302 2 l240 2 0 135 0 135 -303
3 -302 2 0 174 0 174 368 0 c202 0 372 -3 378 -7z m1954 -167 l0 -174 -302 -2
-303 -3 0 -135 0 -135 295 -2 c162 -1 298 -2 302 -2 3 -1 7 -79 7 -174 l1
-173 -380 1 -381 0 -35 45 c-19 25 -40 52 -47 60 -67 83 -287 370 -287 375 0
3 85 114 190 248 l190 243 375 1 375 1 0 -174z"/>
<path d="M44 1598 l1 -173 2756 -1 2756 -1 0 174 0 173 -2757 0 -2757 0 1
-172z"/>
</g>
</svg>
