<svg viewBox="0 0 80 80" xmlns="http://www.w3.org/2000/svg" xmlns:xlink="http://www.w3.org/1999/xlink"><linearGradient id="a"><stop offset="0" stop-color="#a79fc5"/><stop offset="1" stop-color="#240f6e"/></linearGradient><linearGradient id="b" gradientTransform="matrix(1 0 0 -1 0 80)" gradientUnits="userSpaceOnUse" x1="27.047" x2="51.149" xlink:href="#a" y1="51.617" y2="27.515"/><linearGradient id="c" gradientTransform="matrix(1 0 0 -1 0 80)" gradientUnits="userSpaceOnUse" x1="50.806" x2="74.908" xlink:href="#a" y1="75.376" y2="51.274"/><linearGradient id="d" gradientTransform="matrix(1 0 0 -1 0 80)" gradientUnits="userSpaceOnUse" x1="18.991" x2="43.093" xlink:href="#a" y1="43.56" y2="19.458"/><linearGradient id="e" gradientTransform="matrix(1 0 0 -1 0 80)" gradientUnits="userSpaceOnUse" x1="27.875" x2="51.977" xlink:href="#a" y1="52.444" y2="28.343"/><path d="M69.4 23.8l-1.5 2.1c2 4 3.1 8.3 3.3 13h-14c-.2-5.4-1.3-10.6-3.2-15.4.8-.3 1.4-.6 2.2-.8l-.4-.6-.4-.5-.6-.9c-.6.2-1.1.5-1.7.7-2.3-4.7-5.4-9-9.3-12.8 3.7.5 7.2 1.6 10.4 3.3.3-.8.7-1.4 1.1-2.1-4.3-2.2-9.2-3.5-14.4-3.7h-2.4c-9.3.3-17.6 4.3-23.5 10.7-.9 1-1.9 2.1-2.6 3.2.4-.1.8-.1 1.3-.1.6 0 1.1.1 1.6.1.3-.4.7-.8.9-1.1 2.9 1.9 6 3.4 9.3 4.5-.9 2-1.5 4.1-2 6.2 0 .9-.2 2-.5 2.8l-.3.9c-.3 1.8-.5 3.6-.5 5.4h-3.1l-2 2.5h4.8c.1 5 1.1 9.8 2.8 14.4-3.3 1.2-6.5 2.8-9.5 4.8-4.3-5.3-7.1-11.9-7.4-19.2h1.7l-1.7-2.4-2-2.7.2-.2c-.2 1.3-.3 2.7-.3 4.1 0 8.6 3.2 16.5 8.6 22.6s.1 0 .1.1c5.9 6.7 14.5 11 24.2 11.3H41c9.4-.4 18-4.6 24-11.3 0 0 .1 0 .1-.1 5.3-6 8.6-13.9 8.6-22.6-.1-5.9-1.6-11.4-4.3-16.2zM38.5 9.1v14.5c-3.4-.1-6.7-.6-9.9-1.5 2.3-5 5.7-9.3 9.9-13zm-20.8 8.1c4.7-4.5 11-7.7 17.8-8.6-3.9 3.7-7 8-9.3 12.8-2.9-1.1-5.8-2.5-8.5-4.2zm9.9 7c3.5 1 7.2 1.6 10.9 1.7v12.9h-14c.1-5 1.1-10 3.1-14.6zm-3.1 17h14V53c-3.9.1-7.7.8-11.3 1.8-1.7-4.3-2.6-8.9-2.7-13.6zM17 62.1c2.7-1.9 5.8-3.3 8.8-4.4 2.3 5.1 5.6 9.7 9.7 13.7-7.1-1-13.7-4.3-18.5-9.3zm11.1-5.2c3.3-.9 6.8-1.5 10.4-1.6v15.6c-4.6-3.9-8.1-8.7-10.4-14zM40.8 9.1c4.2 3.7 7.6 8 9.9 12.9-3.2.9-6.5 1.4-9.9 1.5zm0 16.8c3.7-.1 7.4-.7 10.9-1.7 1.9 4.6 3 9.5 3.1 14.6h-14zm23.1 34.4c-1.3-.9-2.6-1.7-4.1-2.5l-1.4 1.9c1.3.7 2.5 1.4 3.9 2.3-4.8 5-11.3 8.3-18.5 9.3 2.4-2.3 4.4-4.7 6.2-7.4l-1.5-2c-2.1 3.3-4.6 6.3-7.6 9V55.3c1 0 2.1.1 3.1.2-.3-.5-.5-1-.7-1.6-.1-.3-.2-.6-.2-.9-.8-.1-1.5-.1-2.3-.1V41.1h14v.3c.9.2 1.6.5 2.3.9v-1.1h14.1c-.2 7.3-3 13.9-7.3 19.1z" fill="url(#b)"/><path d="M63.2 8.4c-2.4 0-4.5 1.1-6 2.8-.5.6-.9 1.2-1.1 1.9-.4.8-.6 1.8-.6 2.7 0 .8.1 1.5.3 2.2s.5 1.2.9 1.8c.1.2.2.3.3.5l.4.5.7.9 5 7 3.6-4.9 1.4-1.9.8-.9c.1-.2.3-.3.4-.5.5-.7.8-1.4 1.1-2.3.2-.7.3-1.4.3-2.2 0-4.2-3.3-7.6-7.5-7.6zm0 10.2c-.9 0-1.5-.4-2-.9-.3-.4-.6-.8-.6-1.3V16c0-.8.3-1.4.8-1.9s1.1-.8 1.9-.8c1.5 0 2.6 1.2 2.6 2.6 0 .8-.3 1.3-.8 1.9-.5.5-1.1.8-1.9.8z" fill="url(#c)"/><path d="M13.9 22.4h-.4c-.9 0-1.7.2-2.6.5-2.9 1-5 3.8-5 7.1 0 .8.1 1.5.3 2.2.1.5.3.8.5 1.2s.4.7.7 1l.5.4.8 1 1.8 2.5 1.6 2.2 1.5 2.2 1.5-2.2 1.6-2.2 2.6-3.6c.1-.2.3-.3.4-.5.5-.7.9-1.4 1.1-2.3.2-.7.3-1.4.3-2.2-.1-3.8-3.2-7.1-7.2-7.3zm2.3 7.5c0 1.5-1.2 2.6-2.6 2.6-1.5 0-2.6-1.2-2.6-2.6 0-1.5 1.2-2.6 2.6-2.6s2.6 1.1 2.6 2.6z" fill="url(#d)"/><path d="M56.7 44.9c-.7-.4-1.3-.8-2.1-.9-.6-.2-1.2-.2-1.9-.2-4.2 0-7.6 3.4-7.6 7.6 0 .7.1 1.4.3 2v.2c.3.8.7 1.5 1.1 2.2v.1l.4.5 2.6 3.7 1.4 1.9 1.6 2.3 3.9-5.4 1.3-1.8.5-.7c.1-.2.3-.3.4-.5.5-.7.8-1.4 1.1-2.3.2-.7.3-1.4.3-2.2.3-2.8-1.1-5.2-3.3-6.5zm-4 3.7c.4 0 .9.1 1.1.3.9.5 1.5 1.3 1.5 2.4 0 1.5-1.2 2.6-2.6 2.6h-.3c-1.3-.1-2.4-1.2-2.4-2.6.1-1.5 1.2-2.7 2.7-2.7z" fill="url(#e)"/></svg>