<svg viewBox="0 0 80 80" xmlns="http://www.w3.org/2000/svg" xmlns:xlink="http://www.w3.org/1999/xlink"><linearGradient id="a"><stop offset="0" stop-color="#a79fc5"/><stop offset="1" stop-color="#240f6e"/></linearGradient><linearGradient id="b" gradientTransform="matrix(1 0 0 -1 0 80)" gradientUnits="userSpaceOnUse" x1="29.828" x2="60.083" xlink:href="#a" y1="62.383" y2="32.128"/><linearGradient id="c" gradientTransform="matrix(1 0 0 -1 0 80)" gradientUnits="userSpaceOnUse" x1="35.896" x2="66.151" xlink:href="#a" y1="68.451" y2="38.196"/><linearGradient id="d" gradientTransform="matrix(1 0 0 -1 0 80)" gradientUnits="userSpaceOnUse" x1="32.555" x2="62.81" xlink:href="#a" y1="65.111" y2="34.855"/><linearGradient id="e" gradientTransform="matrix(1 0 0 -1 0 80)" gradientUnits="userSpaceOnUse" x1="7.284" x2="37.539" xlink:href="#a" y1="39.839" y2="9.584"/><linearGradient id="f" gradientTransform="matrix(1 0 0 -1 0 80)" gradientUnits="userSpaceOnUse" x1="14.292" x2="44.547" xlink:href="#a" y1="46.847" y2="16.592"/><linearGradient id="g" gradientTransform="matrix(1 0 0 -1 0 80)" gradientUnits="userSpaceOnUse" x1="26.026" x2="56.282" xlink:href="#a" y1="58.582" y2="28.327"/><linearGradient id="h" gradientTransform="matrix(1 0 0 -1 0 80)" gradientUnits="userSpaceOnUse" x1="31.433" x2="61.689" xlink:href="#a" y1="63.989" y2="33.733"/><linearGradient id="i" gradientTransform="matrix(1 0 0 -1 0 80)" gradientUnits="userSpaceOnUse" x1="-3.226" x2="27.029" xlink:href="#a" y1="29.33" y2="-.926"/><linearGradient id="j" gradientTransform="matrix(1 0 0 -1 0 80)" gradientUnits="userSpaceOnUse" x1="5.13" x2="35.386" xlink:href="#a" y1="37.686" y2="7.431"/><linearGradient id="k" gradientTransform="matrix(1 0 0 -1 0 80)" gradientUnits="userSpaceOnUse" x1="3.102" x2="33.358" xlink:href="#a" y1="35.658" y2="5.402"/><linearGradient id="l" gradientTransform="matrix(1 0 0 -1 0 80)" gradientUnits="userSpaceOnUse" x1="9.898" x2="40.153" xlink:href="#a" y1="42.453" y2="12.198"/><linearGradient id="m" gradientTransform="matrix(1 0 0 -1 0 80)" gradientUnits="userSpaceOnUse" x1="10.668" x2="40.923" xlink:href="#a" y1="43.223" y2="12.968"/><linearGradient id="n" gradientTransform="matrix(1 0 0 -1 0 80)" gradientUnits="userSpaceOnUse" x1="19.061" x2="49.316" xlink:href="#a" y1="51.617" y2="21.361"/><linearGradient id="o" gradientTransform="matrix(1 0 0 -1 0 80)" gradientUnits="userSpaceOnUse" x1="16.954" x2="47.21" xlink:href="#a" y1="49.51" y2="19.255"/><linearGradient id="p" gradientTransform="matrix(1 0 0 -1 0 80)" gradientUnits="userSpaceOnUse" x1="23.832" x2="54.087" xlink:href="#a" y1="56.387" y2="26.132"/><linearGradient id="q" gradientTransform="matrix(1 0 0 -1 0 80)" gradientUnits="userSpaceOnUse" x1="24.589" x2="54.844" xlink:href="#a" y1="57.145" y2="26.889"/><linearGradient id="r" gradientTransform="matrix(1 0 0 -1 0 80)" gradientUnits="userSpaceOnUse" x1="32.944" x2="63.2" xlink:href="#a" y1="65.5" y2="35.245"/><path d="M32.5 13.7h5.1V32h-5.1z" fill="url(#b)"/><path d="M51.1 32l-5.9-9.2h-1.6l5.3-9.1h-4l-5.3 9.1 5.8 9.2z" fill="url(#c)"/><path d="M37.5 39.3l3 5.4 3-5.4c11.3-1 20.1-8 20.1-16.5C63.6 13.6 53.2 6 40.4 6s-23.1 7.6-23.1 16.8c0 8.5 8.8 15.5 20.2 16.5zm2.9-31.4c11.8 0 21.3 6.7 21.3 14.9 0 7.5-7.9 13.8-18.5 14.7l-.9.1-.5.9-1.4 2.5-1.3-2.5-.5-.9-.9-.1c-10.6-.9-18.5-7.4-18.5-14.7-.1-8.2 9.5-14.9 21.2-14.9z" fill="url(#d)"/><path d="M25 58.3c-1.7-.7-2.9-2.3-2.9-4.2 0-2.5 2-4.4 4.4-4.4.6 0 1 .1 1.6.3-.9-1.7-2.7-2.8-4.8-2.8-3 0-5.5 2.5-5.5 5.5v4.6c1 1.2 1.6 2.7 1.6 4.4v1.9h1.3c.2-2.6 1.9-4.6 4.3-5.3z" fill="url(#e)"/><path d="M19.2 42.2c0 2.3 1.8 4.1 4.1 4.1s4.1-1.8 4.1-4.1-1.8-4.1-4.1-4.1-4.1 1.8-4.1 4.1z" fill="url(#f)"/><path d="M63 52.6c0-3-2.5-5.5-5.5-5.5-2.1 0-3.9 1.1-4.8 2.8.5-.2 1-.3 1.6-.3 2.5 0 4.4 2 4.4 4.4 0 1.9-1.2 3.5-2.9 4.2 2.3.7 4.1 2.7 4.2 5.2h1.3v-1.9c0-1.7.6-3.2 1.6-4.3z" fill="url(#g)"/><path d="M53.5 42.2c0 2.3 1.8 4.1 4.1 4.1s4.1-1.8 4.1-4.1-1.8-4.1-4.1-4.1-4.1 1.8-4.1 4.1z" fill="url(#h)"/><path d="M17.2 57.5c-1.1-1.2-2.7-2-4.5-2-3.4 0-6.1 2.7-6.1 6.1V74H19V61.6c0-1.2-.4-2.4-.9-3.3-.5-.3-.6-.5-.9-.8z" fill="url(#i)"/><path d="M12.6 54.5c2.5 0 4.6-2.1 4.6-4.6s-2.1-4.6-4.6-4.6-4.6 2-4.6 4.5 2.1 4.7 4.6 4.7z" fill="url(#j)"/><path d="M29.4 59.6c-.2-.2-.5-.3-.7-.4-.7-.3-1.4-.5-2.2-.5-2.6 0-4.9 2.1-5 4.7V74h10.1V63.8c0-1.7-.8-3.2-2.2-4.2z" fill="url(#k)"/><path d="M28.5 51c-.6-.4-1.2-.6-2-.6-2.1 0-3.8 1.7-3.8 3.8s1.7 3.8 3.8 3.8c.9 0 1.6-.3 2.2-.8.3-.2.5-.4.7-.7.6-.7.9-1.5.9-2.5s-.4-1.8-.9-2.5c-.3-.2-.6-.4-.9-.5z" fill="url(#l)"/><path d="M40.4 55.5c-3.4 0-6.1 2.7-6.1 6.1V74h12.4V61.6c-.1-3.4-2.9-6.1-6.3-6.1z" fill="url(#m)"/><path d="M35.9 49.8c0 2.5 2.1 4.6 4.6 4.6s4.6-2.1 4.6-4.6-2.1-4.6-4.6-4.6c-2.5.1-4.6 2.2-4.6 4.6z" fill="url(#n)"/><path d="M54.4 58.8c-.9 0-1.6.2-2.3.6-.3.1-.5.3-.7.4-1.3.9-2.2 2.5-2.2 4.2v10h10.1V63.5c-.1-2.6-2.3-4.7-4.9-4.7z" fill="url(#o)"/><path d="M50.6 54.2c0 .8.3 1.7.9 2.4.2.3.5.5.7.7.7.5 1.4.8 2.3.8 2.1 0 3.8-1.7 3.8-3.8s-1.7-3.8-3.8-3.8c-.8 0-1.4.2-2 .6-.3.2-.6.5-.9.8-.7.5-1 1.3-1 2.3z" fill="url(#p)"/><path d="M68.3 55.5c-1.8 0-3.5.8-4.6 2.1-.3.3-.5.6-.7.9-.6.9-.8 2-.8 3.2V74h12.4V61.6c-.2-3.4-2.9-6.1-6.3-6.1z" fill="url(#q)"/><path d="M68.3 54.5c2.5 0 4.6-2.1 4.6-4.6s-2.1-4.6-4.6-4.6-4.6 2.1-4.6 4.6 2 4.6 4.6 4.6z" fill="url(#r)"/></svg>