<svg viewBox="0 0 80 80" xmlns="http://www.w3.org/2000/svg" xmlns:xlink="http://www.w3.org/1999/xlink"><linearGradient id="a"><stop offset="0" stop-color="#a79fc5"/><stop offset="1" stop-color="#240f6e"/></linearGradient><linearGradient id="b" gradientUnits="userSpaceOnUse" x1="31.367" x2="61.633" xlink:href="#a" y1="17.633" y2="47.898"/><linearGradient id="c" gradientUnits="userSpaceOnUse" x1="19.149" x2="49.414" xlink:href="#a" y1="29.851" y2="60.117"/><linearGradient id="d" gradientUnits="userSpaceOnUse" x1="24.36" x2="54.626" xlink:href="#a" y1="24.64" y2="54.905"/><linearGradient id="e" gradientUnits="userSpaceOnUse" x1="32.94" x2="63.206" xlink:href="#a" y1="16.06" y2="46.325"/><linearGradient id="f" gradientUnits="userSpaceOnUse" x1="14.62" x2="44.886" xlink:href="#a" y1="34.38" y2="64.645"/><linearGradient id="g" gradientUnits="userSpaceOnUse" x1="16.805" x2="47.07" xlink:href="#a" y1="32.195" y2="62.461"/><linearGradient id="h" gradientUnits="userSpaceOnUse" x1="18.969" x2="49.235" xlink:href="#a" y1="30.031" y2="60.296"/><linearGradient id="i" gradientUnits="userSpaceOnUse" x1="22.302" x2="52.568" xlink:href="#a" y1="26.698" y2="56.964"/><linearGradient id="j" gradientUnits="userSpaceOnUse" x1="25.239" x2="55.504" xlink:href="#a" y1="23.761" y2="54.027"/><linearGradient id="k" gradientUnits="userSpaceOnUse" x1="11.857" x2="42.122" xlink:href="#a" y1="37.144" y2="67.409"/><linearGradient id="l" gradientUnits="userSpaceOnUse" x1="5.793" x2="36.058" xlink:href="#a" y1="43.207" y2="73.473"/><path d="M74.1 44.8c1.7-.9 2.2-3.2 2.2-3.2s-2.6-.3-4.1.9c-.5.4-.9 1-1.3 1.6.3-1.3.4-2.5.5-3.9.6-.1 2-.4 3.3-1.5 1.4-1.2 1.6-3.4 1.6-3.4s-2.5.2-3.8 1.6c-.4.5-.7 1.2-1 1.9.1-1.4 0-2.8-.1-4.1.6-.2 1.8-.8 2.9-2 1.2-1.4.9-3.6.9-3.6s-2.4.6-3.4 2.2c-.3.5-.5 1.3-.6 2-.2-1.4-.5-2.8-.9-4.1.5-.3 1.6-1 2.5-2.5s.3-3.6.3-3.6-2.2 1-2.9 2.7c-.2.8-.2 1.7-.2 2.5-.5-1.4-1-2.8-1.7-4.1.4-.3 1.4-1.2 2.1-2.9.6-1.6-.3-3.5-.3-3.5s-2 1.3-2.3 3.1c-.2.7 0 1.7.2 2.4-.7-1.4-1.6-2.7-2.4-3.9.3-.4 1.2-1.5 1.5-3.1.2-1.7-1.1-3.3-1.1-3.3s-1.7 1.6-1.7 3.4c0 .7.3 1.6.6 2.3-1-1.2-2-2.4-3-3.3.3-.4.9-1.6.9-3.3S61.3 9 61.3 9s-1.3 1.8-1.1 3.6c.1.7.6 1.6 1 2.2-.4-.3-.8-.6-1.1-.9-.9-.7-1.7-1.3-2.5-1.8.1-.4.6-1.7.4-3.4-.3-1.8-2-2.8-2-2.8s-1 2-.5 3.6c.2.8 1 1.6 1.5 2.2-1.5-1-3-1.7-4.2-2.2.1-.3.3-1.7-.2-3.3-.5-1.5-3.1-2-3.1-2s.2 1.9.9 3.3c.4.7 1.4 1.5 2 1.9-.9-.4-1.6-.6-2.3-.8C50 8.2 49 7 47.9 6.8c-.9-.2-2.5.4-2.5.4s.7 1 2.2 1.5c1 .3 2.1-.1 2.5-.3.8.3 1.7.6 2.8 1.2-.6-.1-2-.3-2.8 0-1.6.5-2.6 2.4-2.6 2.4s1.8.7 3.3 0c1.5-.8 2.3-1.9 2.5-2.2 1.2.6 2.6 1.4 4.1 2.4-.7-.2-1.8-.5-2.6-.4-1.7.2-3.1 2-3.1 2s1.7 1 3.3.5 2.5-1.4 2.8-1.8c.6.5 1.3 1 2 1.5l1.8 1.5c-.6-.4-1.7-.9-2.5-.9-1.7-.1-3.4 1.5-3.4 1.5s1.5 1.3 3.2 1.1 2.8-1 3.2-1.3c1 1.1 2.1 2.3 3 3.6-.6-.5-1.5-1.1-2.2-1.2-1.7-.4-3.7.9-3.7.9s1.3 1.6 3 1.7 2.9-.5 3.4-.7c.8 1.2 1.6 2.5 2.2 3.9-.5-.5-1.2-1.2-1.9-1.5-1.7-.7-3.9.2-3.9.2s1 1.9 2.7 2.2c1.6.4 2.9.1 3.4-.1.6 1.3 1.1 2.7 1.6 4.2-.4-.6-1-1.4-1.6-1.8-1.6-1-3.9-.5-3.9-.5s.7 2.1 2.3 2.7c1.5.6 2.9.6 3.5.5.4 1.4.6 2.9.8 4.5-.3-.7-.8-1.7-1.3-2.2-1.4-1.2-3.9-1.2-3.9-1.2s.3 2.2 1.9 3.2c1.4.9 2.8 1.1 3.4 1.1.1 1.4.1 2.8-.1 4.3-.2-.7-.5-1.7-.9-2.2-1.2-1.5-3.7-1.9-3.7-1.9s0 2.3 1.3 3.5 2.6 1.6 3.2 1.7c-.1 1.4-.4 2.7-.7 4.1-.1-.8-.2-1.7-.5-2.4-.9-1.7-3.4-2.5-3.4-2.5s-.4 2.3.7 3.8c1 1.4 2.3 2 2.9 2.3-.4 1.3-.8 2.5-1.4 3.7.1-.8.1-1.7-.1-2.3-.6-1.9-2.9-3.1-2.9-3.1s-.8 2.2 0 3.9c.8 1.5 1.9 2.4 2.4 2.8-.6 1.2-1.2 2.3-1.9 3.3.2-.7.4-1.6.3-2.2-.3-2-2.4-3.7-2.4-3.7s-1.2 2.1-.7 3.9c.5 1.6 1.4 2.7 1.9 3.2-.8 1.1-1.7 2.1-2.5 3.1.3-.7.7-1.6.7-2.3.1-2.1-1.8-4.1-1.8-4.1s-1.6 1.9-1.3 3.8c.2 1.8 1 3 1.4 3.6-1 1-2 1.8-3.1 2.6.5-.7 1-1.5 1.2-2.2.4-2.1-1-4.4-1-4.4s-1.9 1.6-2 3.6c-.1 1.8.4 3.2.7 3.9-.4.3-.8.5-1.2.7-.7.4-1.4.8-2.1 1.1.6-.6 1.2-1.3 1.4-1.9.8-2-.3-4.6-.3-4.6s-2.2 1.2-2.7 3.3c-.4 1.8-.1 3.2.1 4-1.3.5-2.5.9-3.5 1.3.7-.5 1.4-1.1 1.7-1.7 1.2-1.9.6-4.7.6-4.7s-2.5.8-3.3 2.8c-.7 1.7-.7 3.2-.6 4-2.4.5-3.8.6-3.8.6l.1.5.1.5s1.8-.1 4.7-.9c.4.6 1.3 1.9 2.9 2.9 1.8 1.1 4.3.3 4.3.3s-1.2-2.6-3.2-3.5c-.6-.2-1.3-.3-2-.3 1-.3 2.1-.8 3.3-1.3.5.6 1.6 1.6 3.3 2.3 1.9.8 4.2-.4 4.2-.4s-1.6-2.4-3.7-2.8c-.6-.1-1.4-.1-2.1 0 .4-.2.8-.4 1.2-.7.6-.4 1.3-.8 1.9-1.2.6.5 1.8 1.3 3.5 1.6 2 .4 4-1.1 4-1.1s-1.9-2-4.1-2.1c-.6 0-1.3.2-1.9.4.9-.7 1.8-1.5 2.6-2.4.6.3 1.9.9 3.7 1 2 0 3.7-1.7 3.7-1.7s-2.2-1.6-4.3-1.3c-.6.1-1.3.4-1.9.8.8-.9 1.6-1.9 2.3-3 .6.2 2 .6 3.8.3 1.9-.3 3.2-2.3 3.2-2.3s-2.4-1.2-4.3-.5c-.6.2-1.3.7-1.9 1.2.7-1.1 1.3-2.3 1.9-3.5.6.1 2.1.2 3.8-.3 1.8-.6 2.7-2.8 2.7-2.8s-2.5-.7-4.3.2c-.6.3-1.1.9-1.6 1.5.5-1.2.9-2.4 1.2-3.7.6 0 2-.1 3.5-1z" fill="url(#b)"/><path d="M32.8 63.4c-.8-2-3.3-2.8-3.3-2.8s-.6 2.8.6 4.7c.4.6 1.1 1.2 1.8 1.7-1.1-.3-2.2-.7-3.5-1.3.2-.7.5-2.2.1-4-.5-2-2.7-3.3-2.7-3.3s-1.1 2.6-.3 4.6c.3.7.9 1.4 1.4 1.9-.7-.3-1.4-.7-2.1-1.1-.4-.2-.8-.5-1.2-.7.3-.6.8-2 .7-3.9-.1-2-2-3.6-2-3.6s-1.5 2.4-1 4.4c.2.7.7 1.6 1.2 2.2-1-.7-2.1-1.6-3.1-2.6.4-.6 1.2-1.8 1.4-3.6.3-2-1.4-3.8-1.4-3.8s-1.8 2-1.8 4.1c0 .7.4 1.6.7 2.3-.9-.9-1.7-2-2.5-3.1.5-.5 1.4-1.6 1.9-3.2.6-1.9-.7-3.9-.7-3.9s-2.1 1.7-2.4 3.7c-.1.7.1 1.5.3 2.2-.7-1.1-1.3-2.2-1.9-3.3.6-.4 1.6-1.3 2.4-2.8.9-1.7 0-3.9 0-3.9s-2.3 1.2-2.9 3.1c-.2.7-.2 1.6-.1 2.3-.5-1.2-1-2.4-1.4-3.7.6-.3 1.8-.9 2.9-2.3 1.1-1.5.7-3.8.7-3.8s-2.4.8-3.4 2.5c-.3.6-.5 1.6-.5 2.4-.3-1.3-.6-2.7-.7-4.1.6-.2 1.9-.6 3.2-1.7 1.4-1.3 1.3-3.5 1.3-3.5s-2.5.4-3.7 1.9c-.4.6-.7 1.5-.9 2.2-.1-1.4-.1-2.9-.1-4.3.6 0 2-.2 3.4-1.1 1.5-1 1.9-3.2 1.9-3.2s-2.5-.1-3.9 1.2c-.6.5-1 1.4-1.3 2.2.2-1.5.4-3 .8-4.5.6.1 1.9.1 3.5-.5 1.6-.7 2.3-2.7 2.3-2.7s-2.4-.5-3.9.5c-.6.4-1.2 1.2-1.6 1.8.4-1.4.9-2.8 1.6-4.2.5.2 1.8.4 3.4.1 1.7-.4 2.7-2.2 2.7-2.2s-2.2-.9-3.9-.2c-.6.3-1.4.9-1.9 1.5.7-1.4 1.4-2.7 2.2-3.9.5.2 1.7.8 3.4.7s3-1.7 3-1.7-2-1.2-3.7-.9c-.7.2-1.6.8-2.2 1.2.9-1.3 1.9-2.5 3-3.6.4.3 1.5 1.1 3.2 1.3S25 16 25 16s-1.7-1.5-3.4-1.5c-.8 0-1.9.6-2.5.9.6-.6 1.2-1.1 1.8-1.5.7-.6 1.3-1.1 2-1.5.3.3 1.3 1.3 2.8 1.8 1.6.5 3.3-.5 3.3-.5s-1.4-1.8-3.1-2c-.8-.1-1.9.2-2.6.4 1.5-1 2.9-1.8 4.1-2.4.2.3.9 1.4 2.5 2.2 1.4.7 3.3 0 3.3 0s-1-1.9-2.6-2.4c-.8-.3-2.1-.1-2.8 0 1.1-.5 2.1-.9 2.8-1.2.3.2 1.4.6 2.5.3 1.5-.5 2.2-1.5 2.2-1.5s-1.5-.6-2.5-.4c-1.2.2-2.1 1.3-2.3 1.6-.6.2-1.4.5-2.3.8.6-.4 1.6-1.1 2-1.9.7-1.3.8-3.2.8-3.2s-2.5.5-3 2c-.6 1.6-.3 3-.2 3.3-1.3.5-2.7 1.3-4.2 2.2.5-.5 1.3-1.4 1.5-2.2.5-1.6-.5-3.6-.5-3.6s-1.7 1.1-1.9 2.7c-.3 1.7.2 3 .4 3.4-.8.5-1.7 1.2-2.5 1.8-.4.3-.8.6-1.1.9.4-.6.9-1.5 1-2.2.2-1.7-1.1-3.6-1.1-3.6s-1.5 1.4-1.5 3.1.7 2.8.9 3.3c-1.1 1-2.1 2.1-3 3.3.3-.7.6-1.6.6-2.3-.1-1.8-1.7-3.4-1.7-3.4s-1.3 1.7-.9 3.3c.3 1.7 1.2 2.7 1.5 3.1-.9 1.2-1.7 2.5-2.4 3.9.2-.7.3-1.7.2-2.4-.4-1.8-2.3-3.1-2.3-3.1s-1 1.9-.3 3.5c.6 1.6 1.7 2.5 2.1 2.9-.6 1.3-1.2 2.7-1.7 4.1 0-.7 0-1.7-.3-2.3C9.9 24 7.7 23 7.7 23s-.6 2.1.3 3.6 2 2.2 2.5 2.5c-.4 1.3-.7 2.7-.9 4.1-.1-.7-.3-1.5-.6-2C8 29.6 5.6 29 5.6 29s-.3 2.2.9 3.6c1.1 1.3 2.3 1.8 2.9 2-.4 1.6-.4 3-.3 4.4-.2-.7-.6-1.4-1-1.9-1.3-1.4-3.8-1.6-3.8-1.6s.1 2.3 1.6 3.4c1.3 1.1 2.7 1.4 3.3 1.5.1 1.3.3 2.6.5 3.9-.3-.6-.8-1.3-1.3-1.6-1.5-1.2-4.1-.9-4.1-.9s.5 2.3 2.2 3.2c1.5.8 2.9.9 3.6.9.3 1.3.8 2.5 1.2 3.7-.5-.6-1-1.2-1.6-1.5-1.8-.9-4.3-.2-4.3-.2s.9 2.2 2.7 2.8c1.7.6 3.1.4 3.8.3.6 1.2 1.2 2.4 1.9 3.5-.6-.5-1.3-1-1.9-1.2-1.9-.6-4.3.5-4.3.5s1.3 2 3.2 2.3c1.8.3 3.2-.1 3.8-.3.7 1.1 1.5 2 2.3 3-.6-.4-1.3-.7-1.9-.8-2.1-.3-4.3 1.3-4.3 1.3s1.7 1.8 3.7 1.7c1.8 0 3.1-.6 3.7-1 .9.9 1.7 1.7 2.6 2.4-.6-.2-1.3-.4-1.9-.4-2.1.1-4.1 2.1-4.1 2.1s2 1.5 4 1.1c1.8-.4 3-1.2 3.5-1.6.6.4 1.3.8 1.9 1.2.4.2.8.5 1.2.7-.7-.1-1.5-.2-2.1 0-2.1.5-3.7 2.8-3.7 2.8s2.3 1.2 4.2.4c1.7-.7 2.8-1.7 3.3-2.3 1.2.5 2.3 1 3.3 1.3-.7 0-1.5.1-2 .3-2 .8-3.2 3.5-3.2 3.5s2.5.8 4.3-.3c1.6-1 2.5-2.2 2.9-2.9 2.9.8 4.7.9 4.7.9l.1-.5.1-.5s-1.4-.1-3.8-.6c.1-1 .1-2.5-.6-4.2z" fill="url(#c)"/><path d="M29.1 23.3c-1.1.9-1.7 2.1-1.7 3.5 0 1.5.9 2.9 2.6 4.4-3.6 2-5.5 4.2-5.5 6.6 0 1.5.6 2.6 1.8 3.5s2.8 1.3 4.7 1.3c2.1 0 3.9-.5 5.2-1.6 1.4-1.1 2-2.5 2-4.1 0-1.7-1.1-3.4-3.3-5l-.6-.4c2.9-1.2 4.4-3 4.4-5.4 0-1.2-.5-2.2-1.5-2.9-1-.8-2.3-1.1-3.9-1.1-1.6-.2-3.1.3-4.2 1.2zm6.6 14.1c0 1.1-.4 2-1.2 2.7s-1.7 1.1-2.8 1.1c-1.2 0-2.2-.4-3.1-1.1-.9-.8-1.3-1.6-1.3-2.7 0-2.1 1.3-3.9 3.8-5.4l.8.6c2.6 1.8 3.8 3.4 3.8 4.8zm.6-11c0 1.8-1 3.2-2.9 4.1l-.7-.6c-1.7-1.4-2.6-2.7-2.6-3.8 0-.8.3-1.5.9-2s1.3-.8 2.1-.8c.9 0 1.7.3 2.3.9.6.5.9 1.3.9 2.2z" fill="url(#d)"/><path d="M46.8 42.6c2.9 0 5.3-1.3 7.4-3.9s3.1-5.8 3.1-9.4c0-2.3-.5-4.1-1.6-5.4-1-1.3-2.5-2-4.3-2-2.8 0-5.2 1.3-7.3 4S41 31.7 41 35.3c0 2.2.5 4 1.6 5.3 1 1.4 2.4 2 4.2 2zm-.9-15.8c1.3-2.2 2.8-3.4 4.5-3.4 2.7 0 4 2.2 4 6.5 0 3-.7 5.6-2 7.8-1.3 2.3-2.8 3.4-4.6 3.4-2.6 0-3.9-2.2-3.9-6.5 0-2.9.7-5.6 2-7.8z" fill="url(#e)"/><path d="M30 53.3v-2.5l2.1-3.9h-1.5l-1.3 2.6-1.3-2.6h-1.5l2.1 4v2.4z" fill="url(#f)"/><path d="M36.6 48v-1.1h-3.7v6.4h3.7v-1.1h-2.4v-1.7h2.2v-1.1h-2.2V48z" fill="url(#g)"/><path d="M39.3 46.9L37 53.3h1.5l.5-1.5h2.3l.5 1.5h1.5L41 46.9zm0 3.7c.5-1.5.7-2.4.8-2.8 0 .1.1.2.1.4.1.2.3 1 .7 2.3h-1.6z" fill="url(#h)"/><path d="M48.1 49.8c.2-.3.3-.6.3-1 0-.6-.2-1.1-.6-1.4s-1.1-.5-1.9-.5H44v6.4h1.4v-2.4h.7l1.5 2.4h1.5c-.3-.4-.9-1.3-1.9-2.8.4-.1.7-.4.9-.7zm-1.3-.3c-.2.1-.5.2-.9.2h-.4V48h.4c.4 0 .8.1 1 .2s.3.3.3.6c-.1.4-.2.6-.4.7z" fill="url(#i)"/><path d="M52.1 52.1c-.2.1-.4.2-.7.2-.2 0-.5 0-.8-.1s-.7-.2-1.1-.4V53c.5.3 1.1.4 1.8.4s1.3-.2 1.7-.5.6-.8.6-1.4c0-.4-.1-.8-.3-1.1s-.6-.6-1.2-.9c-.5-.2-.7-.4-.9-.4l-.3-.3c.1 0 .1-.1.1-.2 0-.2.1-.3.2-.5.1-.1.3-.2.6-.2.2 0 .4 0 .7.1.2.1.5.2.8.3l.4-1.1c-.3-.1-.6-.3-.9-.3-.3-.1-.6-.1-.9-.1-.7 0-1.2.2-1.6.5s-.6.8-.6 1.3c0 .3.1.6.2.8s.3.4.5.6.5.3.9.5.7.3.8.4l.3.3c.1.1.1.2.1.3-.1.3-.2.5-.4.6z" fill="url(#j)"/><path d="M40.3 67.9c2.4 6.8 11.5 8.1 11.5 8.1-2-9.5-11.5-8.1-11.5-8.1z" fill="url(#k)"/><path d="M28.8 76s9.1-1.3 11.5-8.1c0 0-9.5-1.4-11.5 8.1z" fill="url(#l)"/></svg>