<svg enable-background="new 0 0 80 80" viewBox="0 0 80 80" xmlns="http://www.w3.org/2000/svg" xmlns:xlink="http://www.w3.org/1999/xlink"><linearGradient id="a"><stop offset="0" stop-color="#a79fc5"/><stop offset="1" stop-color="#240f6e"/></linearGradient><linearGradient id="b" gradientUnits="userSpaceOnUse" x1="24.4207" x2="55.1208" xlink:href="#a" y1="24.0793" y2="54.7795"/><linearGradient id="c" gradientUnits="userSpaceOnUse" x1="14.7261" x2="45.4263" xlink:href="#a" y1="33.7739" y2="64.4741"/><linearGradient id="d" gradientUnits="userSpaceOnUse" x1="24.3855" x2="55.0856" xlink:href="#a" y1="24.1145" y2="54.8147"/><path d="m49 6.6h.2c.3.1.5.3.6.5l3.4 7.4c.4.9 1.4 1.5 2.4 1.5h.2l8-.7h.1.1c.5 0 1 .4 1 1v.1.1l-.7 7.9c-.1 1.1.5 2.1 1.5 2.6l7.4 3.4c.3.1.5.3.5.6.1.3 0 .6-.1.8l-4.7 6.6c-.6.9-.6 2.1 0 3l4.7 6.6c.2.2.2.5.1.8s-.3.5-.5.6l-7.4 3.6c-1 .5-1.6 1.5-1.5 2.6l.7 8.1c0 .3-.1.6-.3.8s-.4.3-.7.3h-.1l-8-.8c-.1 0-.2 0-.2 0-1 0-1.9.6-2.4 1.5l-3.4 7.4c-.1.3-.4.5-.6.5-.1 0-.2 0-.2 0-.2 0-.4-.1-.6-.2l-6.6-4.7c-.5-.3-1-.5-1.5-.5s-1.1.2-1.5.5l-6.6 4.7c-.2.1-.4.2-.6.2-.1 0-.2 0-.2 0-.3-.1-.5-.3-.6-.5l-3.4-7.4c-.5-.9-1.5-1.5-2.5-1.5-.1 0-.2 0-.2 0l-8.1.7h-.1c-.3 0-.5-.1-.7-.3s-.3-.5-.3-.8l.7-8.1c.1-1.1-.5-2.1-1.5-2.6l-7.4-3.4c-.1 0-.3-.3-.4-.5-.1-.3 0-.6.1-.8l4.7-6.6c.6-.9.6-2.1 0-3l-4.7-6.6c-.1-.4-.2-.6-.1-.9s.3-.5.5-.6l7.4-3.4c1-.5 1.6-1.5 1.5-2.6l-.7-8.1c0-.3.1-.6.3-.8s.4-.3.7-.3h.1l8.1.7h.2c1 0 1.9-.6 2.4-1.5l3.4-7.4c.1-.3.3-.5.6-.5h.2c.2 0 .4.1.6.2l6.6 4.7c.5.3 1 .5 1.5.5s1.1-.2 1.5-.5l6.6-4.7c.1-.1.3-.2.5-.2m0-2.6c-.7 0-1.4.2-2.1.7l-6.6 4.7-6.6-4.7c-.6-.5-1.3-.7-2-.7-.3 0-.6 0-.9.1-1 .3-1.9 1-2.3 2l-3.5 7.4-8.1-.7c-.1 0-.2 0-.3 0-.9 0-1.9.4-2.5 1-.7.7-1.1 1.8-1 2.8l.7 8.1-7.4 3.4c-1 .4-1.7 1.3-2 2.3s-.1 2.1.5 3l4.8 6.6-4.7 6.6c-.6.9-.8 2-.5 3s1 1.9 2 2.3l7.4 3.4-.7 8.1c-.1 1.1.3 2.1 1 2.9.7.7 1.6 1 2.5 1h.3l8.1-.7 3.4 7.4c.4 1 1.3 1.7 2.3 2h.9c.7 0 1.5-.2 2.1-.7l6.6-4.7 6.6 4.7c.6.4 1.3.7 2.1.7.3 0 .6 0 .9-.1 1-.3 1.9-1 2.3-2l3.4-7.4 8.1.7h.3c.9 0 1.9-.4 2.5-1 .7-.7 1.1-1.8 1-2.9l-.7-8.1 7.4-3.4c1-.4 1.7-1.3 2-2.3s.1-2.1-.5-3l-4.8-6.5 4.7-6.6c.6-.9.8-2 .5-3s-1-1.9-2-2.3l-7.4-3.4.7-7.9c0-.1 0-.3 0-.5 0-2-1.6-3.6-3.6-3.6s0 0-.1 0-.2 0-.3 0l-8 .7-3.4-7.4c-.4-1-1.3-1.7-2.3-2-.1.1-.4 0-.8 0z" fill="url(#b)"/><path d="m29.7 35h-6.2c-.6 0-1.1.5-1.1 1.1v18.9c0 .6.5 1.1 1.1 1.1h6.2c.6 0 1.1-.5 1.1-1.1v-18.9c0-.6-.5-1.1-1.1-1.1z" fill="url(#c)"/><path d="m55.6 34.4c-.2 0-8.6 0-8.6 0l1.2-3.2c.8-2.2.3-5.6-2-6.8-.7-.4-1.8-.6-2.6-.4-.5.1-.9.4-1.1.9-.3.5-.3 1.1-.4 1.6-.3 1.4-.9 2.7-1.9 3.6-1.7 1.7-7.1 6.6-7.1 6.6v17.9h18.7c2.5 0 4.2-2.8 2.9-5 1.5-.9 2-2.9 1.1-4.5 1.5-.9 2-2.9 1.1-4.5 2.5-1.7 1.7-5.7-1.3-6.2z" fill="url(#d)"/></svg>