<svg enable-background="new 0 0 80 80" viewBox="0 0 80 80" xmlns="http://www.w3.org/2000/svg" xmlns:xlink="http://www.w3.org/1999/xlink"><linearGradient id="a"><stop offset="0" stop-color="#a79fc5"/><stop offset="1" stop-color="#240f6e"/></linearGradient><linearGradient id="b" gradientTransform="matrix(1 0 0 -1 0 80)" gradientUnits="userSpaceOnUse" x1="29.8278" x2="60.0832" xlink:href="#a" y1="62.3833" y2="32.1279"/><linearGradient id="c" gradientTransform="matrix(1 0 0 -1 0 80)" gradientUnits="userSpaceOnUse" x1="35.8958" x2="66.1513" xlink:href="#a" y1="68.4514" y2="38.196"/><linearGradient id="d" gradientTransform="matrix(1 0 0 -1 0 80)" gradientUnits="userSpaceOnUse" x1="32.5549" x2="62.8103" xlink:href="#a" y1="65.1105" y2="34.855"/><linearGradient id="e" gradientTransform="matrix(1 0 0 -1 0 80)" gradientUnits="userSpaceOnUse" x1="7.2839" x2="37.5393" xlink:href="#a" y1="39.8394" y2="9.584"/><linearGradient id="f" gradientTransform="matrix(1 0 0 -1 0 80)" gradientUnits="userSpaceOnUse" x1="14.2917" x2="44.547" xlink:href="#a" y1="46.8472" y2="16.5919"/><linearGradient id="g" gradientTransform="matrix(1 0 0 -1 0 80)" gradientUnits="userSpaceOnUse" x1="26.0264" x2="56.2818" xlink:href="#a" y1="58.5819" y2="28.3266"/><linearGradient id="h" gradientTransform="matrix(1 0 0 -1 0 80)" gradientUnits="userSpaceOnUse" x1="31.4333" x2="61.6887" xlink:href="#a" y1="63.9889" y2="33.7335"/><linearGradient id="i" gradientTransform="matrix(1 0 0 -1 0 80)" gradientUnits="userSpaceOnUse" x1="-3.226" x2="27.0294" xlink:href="#a" y1="29.3296" y2="-.9259"/><linearGradient id="j" gradientTransform="matrix(1 0 0 -1 0 80)" gradientUnits="userSpaceOnUse" x1="5.1305" x2="35.386" xlink:href="#a" y1="37.6861" y2="7.4307"/><linearGradient id="k" gradientTransform="matrix(1 0 0 -1 0 80)" gradientUnits="userSpaceOnUse" x1="3.1023" x2="33.3577" xlink:href="#a" y1="35.6579" y2="5.4024"/><linearGradient id="l" gradientTransform="matrix(1 0 0 -1 0 80)" gradientUnits="userSpaceOnUse" x1="9.898" x2="40.1533" xlink:href="#a" y1="42.4535" y2="12.1982"/><linearGradient id="m" gradientTransform="matrix(1 0 0 -1 0 80)" gradientUnits="userSpaceOnUse" x1="10.6675" x2="40.9229" xlink:href="#a" y1="43.2231" y2="12.9676"/><linearGradient id="n" gradientTransform="matrix(1 0 0 -1 0 80)" gradientUnits="userSpaceOnUse" x1="19.0611" x2="49.3165" xlink:href="#a" y1="51.6167" y2="21.3612"/><linearGradient id="o" gradientTransform="matrix(1 0 0 -1 0 80)" gradientUnits="userSpaceOnUse" x1="16.9544" x2="47.2099" xlink:href="#a" y1="49.51" y2="19.2546"/><linearGradient id="p" gradientTransform="matrix(1 0 0 -1 0 80)" gradientUnits="userSpaceOnUse" x1="23.8319" x2="54.0872" xlink:href="#a" y1="56.3874" y2="26.132"/><linearGradient id="q" gradientTransform="matrix(1 0 0 -1 0 80)" gradientUnits="userSpaceOnUse" x1="24.589" x2="54.8445" xlink:href="#a" y1="57.1446" y2="26.8892"/><linearGradient id="r" gradientTransform="matrix(1 0 0 -1 0 80)" gradientUnits="userSpaceOnUse" x1="32.9445" x2="63.1999" xlink:href="#a" y1="65.5001" y2="35.2446"/><path d="m32.5 13.7h5.1v18.3h-5.1z" fill="url(#b)"/><path d="m51.1 32-5.9-9.2h-1.6l5.3-9.1h-4l-5.3 9.1 5.8 9.2z" fill="url(#c)"/><path d="m37.5 39.3 3 5.4 3-5.4c11.3-1 20.1-8 20.1-16.5 0-9.2-10.4-16.8-23.2-16.8s-23.1 7.6-23.1 16.8c0 8.5 8.8 15.5 20.2 16.5zm2.9-31.4c11.8 0 21.3 6.7 21.3 14.9 0 7.5-7.9 13.8-18.5 14.7l-.9.1-.5.9-1.4 2.5-1.3-2.5-.5-.9-.9-.1c-10.6-.9-18.5-7.4-18.5-14.7-.1-8.2 9.5-14.9 21.2-14.9z" fill="url(#d)"/><path d="m25 58.3c-1.7-.7-2.9-2.3-2.9-4.2 0-2.5 2-4.4 4.4-4.4.6 0 1 .1 1.6.3-.9-1.7-2.7-2.8-4.8-2.8-3 0-5.5 2.5-5.5 5.5v4.6c1 1.2 1.6 2.7 1.6 4.4v1.9h1.3c.2-2.6 1.9-4.6 4.3-5.3z" fill="url(#e)"/><path d="m19.2 42.2c0 2.3 1.8 4.1 4.1 4.1s4.1-1.8 4.1-4.1-1.8-4.1-4.1-4.1-4.1 1.8-4.1 4.1z" fill="url(#f)"/><path d="m63 52.6c0-3-2.5-5.5-5.5-5.5-2.1 0-3.9 1.1-4.8 2.8.5-.2 1-.3 1.6-.3 2.5 0 4.4 2 4.4 4.4 0 1.9-1.2 3.5-2.9 4.2 2.3.7 4.1 2.7 4.2 5.2h1.3v-1.9c0-1.7.6-3.2 1.6-4.3z" fill="url(#g)"/><path d="m53.5 42.2c0 2.3 1.8 4.1 4.1 4.1s4.1-1.8 4.1-4.1-1.8-4.1-4.1-4.1-4.1 1.8-4.1 4.1z" fill="url(#h)"/><path d="m17.2 57.5c-1.1-1.2-2.7-2-4.5-2-3.4 0-6.1 2.7-6.1 6.1v12.4h12.4v-9.8-.7-1.9c0-1.2-.4-2.4-.9-3.3-.5-.3-.6-.5-.9-.8z" fill="url(#i)"/><path d="m12.6 54.5c2.5 0 4.6-2.1 4.6-4.6s-2.1-4.6-4.6-4.6-4.6 2-4.6 4.5 2.1 4.7 4.6 4.7z" fill="url(#j)"/><path d="m29.4 59.6c-.2-.2-.5-.3-.7-.4-.7-.3-1.4-.5-2.2-.5-2.6 0-4.9 2.1-5 4.7v.4.3 9.9h10.1v-10.2c0-1.7-.8-3.2-2.2-4.2z" fill="url(#k)"/><path d="m28.5 51c-.6-.4-1.2-.6-2-.6-2.1 0-3.8 1.7-3.8 3.8s1.7 3.8 3.8 3.8c.9 0 1.6-.3 2.2-.8.3-.2.5-.4.7-.7.6-.7.9-1.5.9-2.5s-.4-1.8-.9-2.5c-.3-.2-.6-.4-.9-.5z" fill="url(#l)"/><path d="m40.4 55.5c-3.4 0-6.1 2.7-6.1 6.1v12.4h12.4v-12.4c-.1-3.4-2.9-6.1-6.3-6.1z" fill="url(#m)"/><path d="m35.9 49.8c0 2.5 2.1 4.6 4.6 4.6s4.6-2.1 4.6-4.6-2.1-4.6-4.6-4.6c-2.5.1-4.6 2.2-4.6 4.6z" fill="url(#n)"/><path d="m54.4 58.8c-.9 0-1.6.2-2.3.6-.3.1-.5.3-.7.4-1.3.9-2.2 2.5-2.2 4.2v10h10.1v-9.8-.3c0-.1 0-.2 0-.4-.1-2.6-2.3-4.7-4.9-4.7z" fill="url(#o)"/><path d="m50.6 54.2c0 .8.3 1.7.9 2.4.2.3.5.5.7.7.7.5 1.4.8 2.3.8 2.1 0 3.8-1.7 3.8-3.8s-1.7-3.8-3.8-3.8c-.8 0-1.4.2-2 .6-.3.2-.6.5-.9.8-.7.5-1 1.3-1 2.3z" fill="url(#p)"/><path d="m68.3 55.5c-1.8 0-3.5.8-4.6 2.1-.3.3-.5.6-.7.9-.6.9-.8 2-.8 3.2v1.9.7 9.7h12.4v-12.4c-.2-3.4-2.9-6.1-6.3-6.1z" fill="url(#q)"/><path d="m68.3 54.5c2.5 0 4.6-2.1 4.6-4.6s-2.1-4.6-4.6-4.6-4.6 2.1-4.6 4.6 2 4.6 4.6 4.6z" fill="url(#r)"/></svg>