<svg enable-background="new 0 0 100 100" viewBox="0 0 100 100" xmlns="http://www.w3.org/2000/svg"><g fill="#007db3"><path d="m19.9 82.1c-.8 0-1.5.7-1.5 1.5s.7 1.5 1.5 1.5h65.4c.8 0 1.5-.7 1.5-1.5s-.7-1.5-1.5-1.5z"/><path d="m89.1 73.2v-56.5c0-5.1-4.1-9.2-9.2-9.2h-59.8c-5.1 0-9.2 4.1-9.2 9.2v66.1.2s0 .1 0 .2c0 5.1 4.1 9.2 9.2 9.2h67.5c.8 0 1.5-.7 1.5-1.5s-.7-1.5-1.5-1.5h-67.5c-3.4 0-6.2-2.8-6.2-6.2 0-.1 0-.1 0-.2s0-.1 0-.2c0-3.6 3.1-5.2 6.2-5.2h64.6c2.5 0 4.4-1.9 4.4-4.4zm-19.3-62.7h8.5v17.4l-3.3-2.7c-.6-.5-1.4-.5-1.9 0l-3.3 2.8zm16.3 62.7c0 .8-.6 1.4-1.4 1.4h-64.6c-2.5 0-4.6.7-6.2 1.9v-59.8c0-3.4 2.8-6.2 6.2-6.2h46.7v20.6c0 .6.3 1.1.9 1.4.5.2 1.2.2 1.6-.2l4.8-4 4.8 4c.3.2.6.4 1 .4.2 0 .4 0 .6-.1.5-.2.9-.8.9-1.4v-20.5c2.8.6 4.9 3.1 4.9 6.1v56.4z"/><path d="m61.9 47.8-10.2-23.9c-.3-.8-1-1.2-1.7-1.2s-1.4.5-1.7 1.2l-10.2 23.8-6 14.1c-.3.8 0 1.6.8 2 .8.3 1.6 0 2-.8l5.6-13.2h19l5.6 13.2c.2.6.8.9 1.4.9.2 0 .4 0 .6-.1.8-.3 1.1-1.2.8-2zm-20.1-1 8.2-19.3 8.2 19.3z"/><path d="m19 25.5c-.8 0-1.5.7-1.5 1.5v40.5c0 .8.7 1.5 1.5 1.5s1.5-.7 1.5-1.5v-40.5c0-.9-.6-1.5-1.5-1.5z"/><path d="m19 16.3c-.8 0-1.5.7-1.5 1.5v2.7c0 .8.7 1.5 1.5 1.5s1.5-.7 1.5-1.5v-2.7c0-.9-.6-1.5-1.5-1.5z"/></g></svg>