<svg enable-background="new 0 0 100 100" viewBox="0 0 100 100" xmlns="http://www.w3.org/2000/svg"><g fill="#007db3"><path d="m62.8 75.5h-25.3c-7.3 0-13.3 6-13.3 13.3v2.8c0 .8.7 1.5 1.5 1.5s1.5-.7 1.5-1.5v-2.8c0-5.7 4.6-10.3 10.3-10.3h25.3c5.7 0 10.3 4.6 10.3 10.3v2.8c0 .8.7 1.5 1.5 1.5s1.5-.7 1.5-1.5v-2.8c0-7.4-6-13.3-13.3-13.3z"/><path d="m50.1 44.6c-7.6 0-13.9 6.2-13.9 13.9 0 7.6 6.2 13.9 13.9 13.9 7.6 0 13.9-6.2 13.9-13.9 0-7.6-6.2-13.9-13.9-13.9zm0 24.8c-6 0-10.9-4.9-10.9-10.9s4.9-10.9 10.9-10.9 10.9 4.9 10.9 10.9-4.9 10.9-10.9 10.9z"/><path d="m45.9 28.9 1.6-3.8h5l1.6 3.8c.2.6.8.9 1.4.9.2 0 .4 0 .6-.1.8-.3 1.1-1.2.8-2l-2-4.7-3.4-8c-.3-.6-.8-1-1.5-1-.6 0-1.2.4-1.5 1l-3.4 8-2 4.7c-.3.8 0 1.6.8 2 .8.3 1.7-.1 2-.8zm4.1-9.7 1.2 2.9h-2.5z"/><path d="m90.1 30.9c-.6-.5-1.6-.4-2.1.2l-7 8.8-2.4-2.4c-.6-.6-1.5-.6-2.1 0s-.6 1.5 0 2.1l3.6 3.6c.3.3.7.4 1.1.4h.1c.4 0 .8-.2 1.1-.6l8-10c.5-.6.4-1.6-.3-2.1z"/><path d="m22.2 33.2v-3.6h-5.8v2 2.8l-5.2 1.8c-.6.2-1 .8-1 1.4v6.9c0 .8.7 1.5 1.5 1.5h11.4c.8 0 1.5-.7 1.5-1.5v-6.9c0-.6-.4-1.2-1-1.4l-5.1-1.8v-1.3h3.7zm-.6 9.9h-2.7v-1.3c0-.8-.7-1.5-1.5-1.5s-1.5.7-1.5 1.5v1.3h-2.7v-4.4l4.2-1.5 4.2 1.5z"/><path d="m46.2 36.4 2.4 4.5c.3.5.8.8 1.3.8s1.1-.3 1.3-.8l2.4-4.5c6.7-1.7 11.4-7.7 11.4-14.5 0-8.3-6.7-15-15-15-2.8 0-5.6.8-7.9 2.3-.7.4-.9 1.4-.5 2.1s1.4.9 2.1.5c1.9-1.2 4.1-1.8 6.4-1.8 6.6 0 12 5.4 12 12 0 5.7-4 10.6-9.5 11.8-.4.1-.8.4-1 .7l-1.6 2.6-1.5-2.7c-.2-.4-.6-.7-1-.7-5.5-1.2-9.5-6.1-9.5-11.8 0-1.8.4-3.5 1.1-5.1.4-.7 0-1.6-.7-2-.8-.4-1.6 0-2 .7-.9 2-1.4 4.1-1.4 6.4 0 6.8 4.7 12.8 11.2 14.5z"/><path d="m30.1 52.4c.5.1 1.1 0 1.5-.4s.5-1 .4-1.5l-1.5-4.9c3.4-5.9 2.4-13.4-2.5-18.2-2.9-2.8-6.6-4.3-10.7-4.3-4 0-7.8 1.6-10.6 4.5-2.1 2.1-3.5 4.8-4 7.8-.2.8.3 1.6 1.2 1.7.8.1 1.6-.4 1.7-1.2.4-2.4 1.6-4.5 3.2-6.2 2.2-2.3 5.3-3.6 8.5-3.6h.1c3.2 0 6.1 1.2 8.4 3.4 4 4 4.8 10.3 1.7 15.1-.2.4-.3.8-.2 1.2l.9 2.9-2.9-.8c-.4-.1-.9 0-1.2.2-4.7 3.1-11 2.5-15.1-1.4-1.2-1.2-2.2-2.6-2.8-4.2-.3-.8-1.2-1.2-1.9-.8-.8.3-1.2 1.2-.8 1.9.8 2 1.9 3.7 3.5 5.2 2.9 2.8 6.7 4.3 10.5 4.3 2.7 0 5.3-.7 7.7-2.1z"/><path d="m93.1 27.6c-5.8-5.9-15.3-6-21.2-.2-4.9 4.8-5.9 12.3-2.5 18.2l-1.5 4.9c-.2.5 0 1.1.4 1.5s1 .5 1.5.4l4.9-1.4c2.4 1.4 5.1 2.1 7.7 2.1 3.8 0 7.7-1.5 10.5-4.3 5.9-5.8 6-15.3.2-21.2zm-2.3 19.1c-4 4-10.4 4.6-15.1 1.4-.2-.2-.5-.3-.8-.3-.1 0-.3 0-.4.1l-2.9.8.9-2.9c.1-.4.1-.9-.2-1.2-3.1-4.8-2.3-11.1 1.7-15.1 4.7-4.6 12.4-4.6 17 .2 4.6 4.7 4.5 12.4-.2 17z"/></g></svg>