<svg enable-background="new 0 0 100 100" viewBox="0 0 100 100" xmlns="http://www.w3.org/2000/svg"><g fill="#007db3"><path d="m50 31.2c-3.5.1-6.3 2.9-6.3 6.3s2.8 6.3 6.3 6.3c3.4-.1 6.2-2.9 6.2-6.3s-2.7-6.3-6.2-6.3zm0 10.1c-2.1 0-3.8-1.8-3.8-3.8 0-2.1 1.7-3.8 3.7-3.8 2.1.1 3.7 1.8 3.7 3.8.1 2.1-1.5 3.8-3.6 3.8z"/><path d="m26.5 84.6c0 .8.7 1.5 1.5 1.5h7.2c.8 0 1.5-.7 1.5-1.5s-.7-1.5-1.5-1.5h-7.2c-.8 0-1.5.6-1.5 1.5z"/><path d="m38.7 84.6c0 .8.7 1.5 1.5 1.5h31.8c.8 0 1.5-.7 1.5-1.5s-.7-1.5-1.5-1.5h-31.8c-.8 0-1.5.6-1.5 1.5z"/><path d="m78.6 88.5h-57.2c-.8 0-1.5.7-1.5 1.5s.7 1.5 1.5 1.5h57.3c.8 0 1.5-.7 1.5-1.5s-.7-1.5-1.6-1.5z"/><path d="m32.1 77.6c-.8 0-1.5.7-1.5 1.5s.7 1.5 1.5 1.5h35.7c.8 0 1.5-.7 1.5-1.5s-.7-1.5-1.5-1.5h-5.8v-13.6h1c.8 0 1.5-.7 1.5-1.5s-.7-1.5-1.5-1.5h-26c-.8 0-1.5.7-1.5 1.5s.7 1.5 1.5 1.5h1v13.6zm8.9-13.6h7.9v8.8c0 .6.4 1 1 1s1-.4 1-1v-8.8h8.1v13.6h-8.2v-1.4c0-.6-.4-1-1-1s-1 .4-1 1v1.4h-7.8z"/><path d="m27.1 79c0-.8-.7-1.5-1.5-1.5h-12.2c-.4 0-.6-.3-.6-.6v-34.5l5.4-10.4c1-1.3 1.4-1.5 2.3-1.5h16.2c.8 0 1.5-.7 1.5-1.5s-.7-1.5-1.5-1.5h-16.2c-2.5 0-3.7 1.3-4.7 2.7-.1.1-.1.1-.1.2l-5.8 11c-.1.2-.2.4-.2.7v34.8c0 2 1.6 3.6 3.6 3.6h12.2c.9 0 1.6-.7 1.6-1.5z"/><path d="m90.1 41.4-5.6-10.9c0-.1-.1-.2-.1-.2-1.1-1.4-2.3-2.7-4.7-2.7h-23.7c-1.6-2-3.2-4-4.6-5.7v-10.4h9.1l-.5 3.6h-5.1c-.8 0-1.5.7-1.5 1.5s.7 1.5 1.5 1.5h6.4c.7 0 1.4-.5 1.5-1.3l1-6.6c.1-.4-.1-.9-.3-1.2-.3-.3-.7-.5-1.1-.5h-12.5c-.8 0-1.5.7-1.5 1.5v12.1c-5.6 7-14.3 17.6-16.2 19.6h-14.7c-.8 0-1.5.7-1.5 1.5s.7 1.5 1.5 1.5h15.2c.9 0 1.3 0 17.2-19.8 16 19.8 16.3 19.8 17.2 19.8h20v32.2c0 .4-.3.6-.6.6h-12.1c-.8 0-1.5.7-1.5 1.5s.7 1.5 1.5 1.5h12.2c2 0 3.6-1.6 3.6-3.6v-34.8c0-.3 0-.5-.1-.7zm-31.7-10.9h21.1c.9 0 1.3.2 2.3 1.5l5 9.7h-19c-1.2-1.3-5.2-6.1-9.4-11.2z"/><path d="m19.6 57.5h4.6c1.4 0 2.5-1.1 2.5-2.5v-5.5c0-1.4-1.1-2.5-2.5-2.5h-4.6c-1.4 0-2.5 1.1-2.5 2.5v5.5c0 1.4 1.1 2.5 2.5 2.5zm4.6-7.9v5.4h-4.6v-5.5h4.6z"/><path d="m36.3 49.6v5.5c0 1.4 1.1 2.5 2.5 2.5h6.3c1.4 0 2.5-1.1 2.5-2.5v-5.5c0-1.4-1.1-2.5-2.5-2.5h-6.3c-1.4 0-2.5 1.1-2.5 2.5zm8.8 5.4h-6.3v-5.5h6.2z"/><path d="m52.2 49.6v5.5c0 1.4 1.1 2.5 2.5 2.5h6.3c1.4 0 2.5-1.1 2.5-2.5v-5.5c0-1.4-1.1-2.5-2.5-2.5h-6.3c-1.4 0-2.5 1.1-2.5 2.5zm8.8 0v5.5h-6.3v-5.4z"/><path d="m75.5 57.5h4.6c1.4 0 2.5-1.1 2.5-2.5v-5.5c0-1.4-1.1-2.5-2.5-2.5h-4.6c-1.4 0-2.5 1.1-2.5 2.5v5.5c.1 1.4 1.2 2.5 2.5 2.5zm4.6-7.9v5.5h-4.6v-5.4z"/><path d="m17.1 68.8c0 1.4 1.1 2.5 2.5 2.5h4.6c1.4 0 2.5-1.1 2.5-2.5v-5.5c0-1.4-1.1-2.5-2.5-2.5h-4.6c-1.4 0-2.5 1.1-2.5 2.5zm7.1-5.4v5.4h-4.6v-5.5h4.6z"/><path d="m73.1 68.8c0 1.4 1.1 2.5 2.5 2.5h4.6c1.4 0 2.5-1.1 2.5-2.5v-5.5c0-1.4-1.1-2.5-2.5-2.5h-4.6c-1.4 0-2.5 1.1-2.5 2.5zm7-5.4v5.5h-4.6v-5.4z"/></g></svg>