<svg enable-background="new 0 0 100 100" viewBox="0 0 100 100" xmlns="http://www.w3.org/2000/svg"><g fill="#007db3"><path d="m59.2 30.9c0-5.1-4.1-9.2-9.2-9.2s-9.2 4.1-9.2 9.2 4.1 9.2 9.2 9.2c5.1-.1 9.2-4.2 9.2-9.2zm-15.4 0c0-3.4 2.8-6.2 6.2-6.2s6.2 2.8 6.2 6.2-2.8 6.1-6.2 6.1-6.2-2.7-6.2-6.1z"/><path d="m51 25.1h-2v4.8h-2.7v2h4.7z"/><path d="m18.9 44.9c.8 0 1.5-.7 1.5-1.5v-1c0-.8-.7-1.5-1.5-1.5s-1.5.7-1.5 1.5v1c0 .8.7 1.5 1.5 1.5z"/><path d="m71.1 61.5v-7.2h7.5l-2.5-15.6h-13l-2.5 15.6h7.5v7.2h-27.4c-.6-3.6-3.1-6.3-6.1-6.3h-8.8c-2.3 0-4.3 1.5-5.4 3.8v-10.6c0-.8-.7-1.5-1.5-1.5s-1.5.7-1.5 1.5v14.6 26.3c0 .8.7 1.5 1.5 1.5s1.5-.7 1.5-1.5v-9.1h59.2v9.1c0 .8.7 1.5 1.5 1.5s1.5-.7 1.5-1.5v-17.2c0-5.7-5.1-10.4-11.5-10.6zm-5.5-19.8h8l1.5 9.6h-11zm-39.8 16.6h8.8c1.4 0 2.6 1.4 3.1 3.3h-15c.5-1.9 1.7-3.3 3.1-3.3zm-5.4 18.9v-3.6h9.8c.8 0 1.5-.7 1.5-1.5s-.7-1.5-1.5-1.5h-9.8v-6.1h50.4c4.2 0 7.8 2.7 8.6 6.1h-43c-.8 0-1.5.7-1.5 1.5s.7 1.5 1.5 1.5h43.2v3.6z"/><path d="m95.9 50.5-13.3-17.3v-18.7c0-.8-.7-1.5-1.5-1.5h-8.4c-.8 0-1.5.7-1.5 1.5v4l-6.7-8.7c-.3-.4-.7-.6-1.2-.6h-26.7c-.5 0-.9.2-1.2.6l-31.3 40.7c-.5.7-.4 1.6.3 2.1.3.2.6.3.9.3.4 0 .9-.2 1.2-.6l30.9-40.2h25.3l30.9 40.2c.5.7 1.4.8 2.1.3.6-.5.7-1.4.2-2.1zm-21.7-34.5h5.4v13.3l-5.4-7z"/></g></svg>