<svg enable-background="new 0 0 100 100" viewBox="0 0 100 100" xmlns="http://www.w3.org/2000/svg"><g fill="#007db3"><path d="m50.1 4.4c-25.1 0-45.5 20.4-45.5 45.5s20.4 45.5 45.5 45.5c.8 0 1.5-.7 1.5-1.5s-.7-1.5-1.5-1.5c-23.4 0-42.5-19.1-42.5-42.5s19.1-42.5 42.5-42.5 42.5 19.1 42.5 42.5c0 .8.7 1.5 1.5 1.5s1.5-.7 1.5-1.5c0-25.1-20.4-45.5-45.5-45.5z"/><path d="m81.8 50.1c0-17.4-14.1-31.5-31.5-31.5s-31.5 14.2-31.5 31.5 14.1 31.5 31.5 31.5 31.5-14.1 31.5-31.5zm-59.9 1.5h10.1c.1 4.6.8 8.9 1.9 12.7h-8.3c-2.2-3.8-3.5-8.1-3.7-12.7zm3.7-15.7h8.3c-1.1 3.8-1.8 8.1-1.9 12.7h-10.1c.2-4.6 1.5-8.9 3.7-12.7zm53.2 12.7h-10.2c-.1-4.6-.8-8.9-1.9-12.7h8.3c2.2 3.8 3.5 8.1 3.8 12.7zm-13.2 0h-13.8v-12.7h11.7c1.2 3.8 1.9 8.2 2.1 12.7zm-13.8-15.7v-11.1c4.3.8 8.1 5.1 10.6 11.2zm-3-11.1v11.2h-10.6c2.5-6.2 6.4-10.4 10.6-11.2zm0 14.1v12.7h-13.7c.1-4.6.9-8.9 2.1-12.7zm-13.7 15.7h13.8v12.7h-11.8c-1.2-3.8-1.9-8.1-2-12.7zm13.7 15.7v11.2c-4.3-.8-8.1-5.1-10.6-11.2zm3 11.2v-11.2h10.6c-2.5 6.1-6.3 10.4-10.6 11.2zm0-14.2v-12.7h13.8c-.1 4.6-.9 8.9-2.1 12.7zm16.8-12.7h10.2c-.2 4.6-1.6 8.9-3.8 12.7h-8.3c1.1-3.8 1.8-8.1 1.9-12.7zm4.4-18.7h-7.3c-1.4-3.9-3.4-7.2-5.7-9.6 5.3 1.9 9.7 5.3 13 9.6zm-32.4-9.5c-2.3 2.4-4.2 5.7-5.7 9.6h-7.3c3.3-4.4 7.8-7.8 13-9.6zm-13 43.9h7.3c1.4 3.9 3.4 7.2 5.7 9.6-5.2-1.9-9.7-5.3-13-9.6zm32.5 9.6c2.3-2.4 4.2-5.7 5.7-9.6h7.2c-3.3 4.3-7.7 7.7-12.9 9.6z"/><path d="m91 89.4h-9.5l-9.6-10c-.3-.3-.7-.5-1.1-.5h-2.8c-.5 0-.9.2-1.2.6s-.4.9-.2 1.3l2.4 8.5h-5.8l-2.2-3.7c-.3-.5-.8-.8-1.3-.8h-3.3c-.8 0-1.5.7-1.5 1.5v7.1c0 2.2 1.8 4 4 4h32.1c2.2 0 4-1.8 4-4s-1.7-4-4-4zm0 5.1h-32.1c-.6 0-1-.5-1-1v-5.6h.9l2.1 3.8c.3.5.8.8 1.3.8h8.7c.5 0 .9-.2 1.2-.6s.4-.9.2-1.3l-2.3-8.6h.2l9.6 10c.3.3.7.5 1.1.5h10.1c.6 0 1 .5 1 1s-.4 1-1 1z"/></g></svg>